# MagicaVoxel @ Ephtracy

# group
o 

# material
mtllib ROAD.vox.mtl
usemtl palette

# normals
vn -1 0 0
vn 1 0 0
vn 0 0 1
vn 0 0 -1
vn 0 -1 0
vn 0 1 0

# texcoords
vt 0.974609 0.5
vt 0.978516 0.5
vt 0.994141 0.5

# verts
v -0.5 0 2
v -0.5 0 -2
v -0.5 0.1 2
v -0.5 0.1 -2
v -0.2 0 2
v -0.2 0 -2
v -0.2 0.1 2
v -0.2 0.1 -2
v -0.5 0 2
v -0.5 0.1 2
v -0.4 0 2
v -0.4 0.1 2
v -0.3 0 2
v -0.3 0.1 2
v -0.2 0 2
v -0.2 0.1 2
v -0.5 0 -2
v -0.5 0.1 -2
v -0.4 0 -2
v -0.4 0.1 -2
v -0.3 0 -2
v -0.3 0.1 -2
v -0.2 0 -2
v -0.2 0.1 -2
v -0.5 0 2
v -0.4 0 2
v -0.3 0 2
v -0.2 0 2
v -0.4 0 1.9
v -0.3 0 1.9
v -0.4 0 1.8
v -0.3 0 1.8
v -0.4 0 1.7
v -0.3 0 1.7
v -0.4 0 1.5
v -0.3 0 1.5
v -0.4 0 1.4
v -0.3 0 1.4
v -0.4 0 1.2
v -0.3 0 1.2
v -0.4 0 1.1
v -0.3 0 1.1
v -0.4 0 0.9
v -0.3 0 0.9
v -0.4 0 0.8
v -0.3 0 0.8
v -0.4 0 0.6
v -0.3 0 0.6
v -0.4 0 0.5
v -0.3 0 0.5
v -0.4 0 0.3
v -0.3 0 0.3
v -0.4 0 0.2
v -0.3 0 0.2
v -0.4 0 -2.38419e-07
v -0.3 0 -2.38419e-07
v -0.4 0 -0.1
v -0.3 0 -0.1
v -0.4 0 -0.3
v -0.3 0 -0.3
v -0.4 0 -0.4
v -0.3 0 -0.4
v -0.4 0 -0.6
v -0.3 0 -0.6
v -0.4 0 -0.7
v -0.3 0 -0.7
v -0.4 0 -0.9
v -0.3 0 -0.9
v -0.4 0 -1
v -0.3 0 -1
v -0.4 0 -1.2
v -0.3 0 -1.2
v -0.4 0 -1.4
v -0.3 0 -1.4
v -0.4 0 -1.6
v -0.3 0 -1.6
v -0.4 0 -1.8
v -0.3 0 -1.8
v -0.5 0 -2
v -0.4 0 -2
v -0.3 0 -2
v -0.2 0 -2
v -0.5 0.1 2
v -0.4 0.1 2
v -0.3 0.1 2
v -0.2 0.1 2
v -0.4 0.1 1.9
v -0.3 0.1 1.9
v -0.4 0.1 1.8
v -0.3 0.1 1.8
v -0.4 0.1 1.7
v -0.3 0.1 1.7
v -0.4 0.1 1.5
v -0.3 0.1 1.5
v -0.4 0.1 1.4
v -0.3 0.1 1.4
v -0.4 0.1 1.2
v -0.3 0.1 1.2
v -0.4 0.1 1.1
v -0.3 0.1 1.1
v -0.4 0.1 0.9
v -0.3 0.1 0.9
v -0.4 0.1 0.8
v -0.3 0.1 0.8
v -0.4 0.1 0.6
v -0.3 0.1 0.6
v -0.4 0.1 0.5
v -0.3 0.1 0.5
v -0.4 0.1 0.3
v -0.3 0.1 0.3
v -0.4 0.1 0.2
v -0.3 0.1 0.2
v -0.4 0.1 -2.38419e-07
v -0.3 0.1 -2.38419e-07
v -0.4 0.1 -0.1
v -0.3 0.1 -0.1
v -0.4 0.1 -0.3
v -0.3 0.1 -0.3
v -0.4 0.1 -0.4
v -0.3 0.1 -0.4
v -0.4 0.1 -0.6
v -0.3 0.1 -0.6
v -0.4 0.1 -0.7
v -0.3 0.1 -0.7
v -0.4 0.1 -0.9
v -0.3 0.1 -0.9
v -0.4 0.1 -1
v -0.3 0.1 -1
v -0.4 0.1 -1.2
v -0.3 0.1 -1.2
v -0.4 0.1 -1.4
v -0.3 0.1 -1.4
v -0.4 0.1 -1.6
v -0.3 0.1 -1.6
v -0.4 0.1 -1.8
v -0.3 0.1 -1.8
v -0.5 0.1 -2
v -0.4 0.1 -2
v -0.3 0.1 -2
v -0.2 0.1 -2

# faces
f 3/3/1 2/3/1 1/3/1
f 4/3/1 2/3/1 3/3/1
f 5/3/2 6/3/2 7/3/2
f 7/3/2 6/3/2 8/3/2
f 11/3/3 10/3/3 9/3/3
f 12/3/3 10/3/3 11/3/3
f 13/2/3 12/2/3 11/2/3
f 14/2/3 12/2/3 13/2/3
f 15/3/3 14/3/3 13/3/3
f 16/3/3 14/3/3 15/3/3
f 17/3/4 18/3/4 19/3/4
f 19/3/4 18/3/4 20/3/4
f 19/1/4 20/1/4 21/1/4
f 21/1/4 20/1/4 22/1/4
f 21/3/4 22/3/4 23/3/4
f 23/3/4 22/3/4 24/3/4
f 29/3/5 26/3/5 25/3/5
f 29/2/5 27/2/5 26/2/5
f 30/3/5 28/3/5 27/3/5
f 30/2/5 27/2/5 29/2/5
f 31/3/5 29/3/5 25/3/5
f 31/1/5 30/1/5 29/1/5
f 32/3/5 28/3/5 30/3/5
f 32/1/5 30/1/5 31/1/5
f 33/3/5 31/3/5 25/3/5
f 33/3/5 32/3/5 31/3/5
f 34/3/5 28/3/5 32/3/5
f 34/3/5 32/3/5 33/3/5
f 35/3/5 33/3/5 25/3/5
f 35/1/5 34/1/5 33/1/5
f 36/3/5 28/3/5 34/3/5
f 36/1/5 34/1/5 35/1/5
f 37/3/5 35/3/5 25/3/5
f 37/3/5 36/3/5 35/3/5
f 38/3/5 28/3/5 36/3/5
f 38/3/5 36/3/5 37/3/5
f 39/3/5 37/3/5 25/3/5
f 39/1/5 38/1/5 37/1/5
f 40/3/5 28/3/5 38/3/5
f 40/1/5 38/1/5 39/1/5
f 41/3/5 39/3/5 25/3/5
f 41/3/5 40/3/5 39/3/5
f 42/3/5 28/3/5 40/3/5
f 42/3/5 40/3/5 41/3/5
f 43/3/5 41/3/5 25/3/5
f 43/1/5 42/1/5 41/1/5
f 44/3/5 28/3/5 42/3/5
f 44/1/5 42/1/5 43/1/5
f 45/3/5 43/3/5 25/3/5
f 45/3/5 44/3/5 43/3/5
f 46/3/5 28/3/5 44/3/5
f 46/3/5 44/3/5 45/3/5
f 47/3/5 45/3/5 25/3/5
f 47/1/5 46/1/5 45/1/5
f 48/3/5 28/3/5 46/3/5
f 48/1/5 46/1/5 47/1/5
f 49/3/5 47/3/5 25/3/5
f 49/3/5 48/3/5 47/3/5
f 50/3/5 28/3/5 48/3/5
f 50/3/5 48/3/5 49/3/5
f 51/3/5 49/3/5 25/3/5
f 51/1/5 50/1/5 49/1/5
f 52/3/5 28/3/5 50/3/5
f 52/1/5 50/1/5 51/1/5
f 53/3/5 51/3/5 25/3/5
f 53/3/5 52/3/5 51/3/5
f 54/3/5 28/3/5 52/3/5
f 54/3/5 52/3/5 53/3/5
f 55/3/5 53/3/5 25/3/5
f 55/1/5 54/1/5 53/1/5
f 56/3/5 28/3/5 54/3/5
f 56/1/5 54/1/5 55/1/5
f 57/3/5 55/3/5 25/3/5
f 57/3/5 56/3/5 55/3/5
f 58/3/5 28/3/5 56/3/5
f 58/3/5 56/3/5 57/3/5
f 59/3/5 57/3/5 25/3/5
f 59/1/5 58/1/5 57/1/5
f 60/3/5 28/3/5 58/3/5
f 60/1/5 58/1/5 59/1/5
f 61/3/5 59/3/5 25/3/5
f 61/3/5 60/3/5 59/3/5
f 62/3/5 28/3/5 60/3/5
f 62/3/5 60/3/5 61/3/5
f 63/3/5 61/3/5 25/3/5
f 63/1/5 62/1/5 61/1/5
f 64/3/5 28/3/5 62/3/5
f 64/1/5 62/1/5 63/1/5
f 65/3/5 63/3/5 25/3/5
f 65/3/5 64/3/5 63/3/5
f 66/3/5 28/3/5 64/3/5
f 66/3/5 64/3/5 65/3/5
f 67/3/5 65/3/5 25/3/5
f 67/1/5 66/1/5 65/1/5
f 68/3/5 28/3/5 66/3/5
f 68/1/5 66/1/5 67/1/5
f 69/3/5 67/3/5 25/3/5
f 69/3/5 68/3/5 67/3/5
f 70/3/5 28/3/5 68/3/5
f 70/3/5 68/3/5 69/3/5
f 71/3/5 69/3/5 25/3/5
f 71/1/5 70/1/5 69/1/5
f 72/3/5 28/3/5 70/3/5
f 72/1/5 70/1/5 71/1/5
f 73/3/5 71/3/5 25/3/5
f 73/3/5 72/3/5 71/3/5
f 74/3/5 28/3/5 72/3/5
f 74/3/5 72/3/5 73/3/5
f 75/3/5 73/3/5 25/3/5
f 75/1/5 74/1/5 73/1/5
f 76/3/5 28/3/5 74/3/5
f 76/1/5 74/1/5 75/1/5
f 77/3/5 75/3/5 25/3/5
f 77/3/5 76/3/5 75/3/5
f 78/3/5 28/3/5 76/3/5
f 78/3/5 76/3/5 77/3/5
f 79/3/5 77/3/5 25/3/5
f 80/1/5 78/1/5 77/1/5
f 80/3/5 77/3/5 79/3/5
f 81/3/5 28/3/5 78/3/5
f 81/1/5 78/1/5 80/1/5
f 82/3/5 28/3/5 81/3/5
f 83/3/6 84/3/6 87/3/6
f 84/2/6 85/2/6 87/2/6
f 85/3/6 86/3/6 88/3/6
f 87/2/6 85/2/6 88/2/6
f 83/3/6 87/3/6 89/3/6
f 87/1/6 88/1/6 89/1/6
f 88/3/6 86/3/6 90/3/6
f 89/1/6 88/1/6 90/1/6
f 83/3/6 89/3/6 91/3/6
f 89/3/6 90/3/6 91/3/6
f 90/3/6 86/3/6 92/3/6
f 91/3/6 90/3/6 92/3/6
f 83/3/6 91/3/6 93/3/6
f 91/1/6 92/1/6 93/1/6
f 92/3/6 86/3/6 94/3/6
f 93/1/6 92/1/6 94/1/6
f 83/3/6 93/3/6 95/3/6
f 93/3/6 94/3/6 95/3/6
f 94/3/6 86/3/6 96/3/6
f 95/3/6 94/3/6 96/3/6
f 83/3/6 95/3/6 97/3/6
f 95/1/6 96/1/6 97/1/6
f 96/3/6 86/3/6 98/3/6
f 97/1/6 96/1/6 98/1/6
f 83/3/6 97/3/6 99/3/6
f 97/3/6 98/3/6 99/3/6
f 98/3/6 86/3/6 100/3/6
f 99/3/6 98/3/6 100/3/6
f 83/3/6 99/3/6 101/3/6
f 99/1/6 100/1/6 101/1/6
f 100/3/6 86/3/6 102/3/6
f 101/1/6 100/1/6 102/1/6
f 83/3/6 101/3/6 103/3/6
f 101/3/6 102/3/6 103/3/6
f 102/3/6 86/3/6 104/3/6
f 103/3/6 102/3/6 104/3/6
f 83/3/6 103/3/6 105/3/6
f 103/1/6 104/1/6 105/1/6
f 104/3/6 86/3/6 106/3/6
f 105/1/6 104/1/6 106/1/6
f 83/3/6 105/3/6 107/3/6
f 105/3/6 106/3/6 107/3/6
f 106/3/6 86/3/6 108/3/6
f 107/3/6 106/3/6 108/3/6
f 83/3/6 107/3/6 109/3/6
f 107/1/6 108/1/6 109/1/6
f 108/3/6 86/3/6 110/3/6
f 109/1/6 108/1/6 110/1/6
f 83/3/6 109/3/6 111/3/6
f 109/3/6 110/3/6 111/3/6
f 110/3/6 86/3/6 112/3/6
f 111/3/6 110/3/6 112/3/6
f 83/3/6 111/3/6 113/3/6
f 111/1/6 112/1/6 113/1/6
f 112/3/6 86/3/6 114/3/6
f 113/1/6 112/1/6 114/1/6
f 83/3/6 113/3/6 115/3/6
f 113/3/6 114/3/6 115/3/6
f 114/3/6 86/3/6 116/3/6
f 115/3/6 114/3/6 116/3/6
f 83/3/6 115/3/6 117/3/6
f 115/1/6 116/1/6 117/1/6
f 116/3/6 86/3/6 118/3/6
f 117/1/6 116/1/6 118/1/6
f 83/3/6 117/3/6 119/3/6
f 117/3/6 118/3/6 119/3/6
f 118/3/6 86/3/6 120/3/6
f 119/3/6 118/3/6 120/3/6
f 83/3/6 119/3/6 121/3/6
f 119/1/6 120/1/6 121/1/6
f 120/3/6 86/3/6 122/3/6
f 121/1/6 120/1/6 122/1/6
f 83/3/6 121/3/6 123/3/6
f 121/3/6 122/3/6 123/3/6
f 122/3/6 86/3/6 124/3/6
f 123/3/6 122/3/6 124/3/6
f 83/3/6 123/3/6 125/3/6
f 123/1/6 124/1/6 125/1/6
f 124/3/6 86/3/6 126/3/6
f 125/1/6 124/1/6 126/1/6
f 83/3/6 125/3/6 127/3/6
f 125/3/6 126/3/6 127/3/6
f 126/3/6 86/3/6 128/3/6
f 127/3/6 126/3/6 128/3/6
f 83/3/6 127/3/6 129/3/6
f 127/1/6 128/1/6 129/1/6
f 128/3/6 86/3/6 130/3/6
f 129/1/6 128/1/6 130/1/6
f 83/3/6 129/3/6 131/3/6
f 129/3/6 130/3/6 131/3/6
f 130/3/6 86/3/6 132/3/6
f 131/3/6 130/3/6 132/3/6
f 83/3/6 131/3/6 133/3/6
f 131/1/6 132/1/6 133/1/6
f 132/3/6 86/3/6 134/3/6
f 133/1/6 132/1/6 134/1/6
f 83/3/6 133/3/6 135/3/6
f 133/3/6 134/3/6 135/3/6
f 134/3/6 86/3/6 136/3/6
f 135/3/6 134/3/6 136/3/6
f 83/3/6 135/3/6 137/3/6
f 135/1/6 136/1/6 138/1/6
f 137/3/6 135/3/6 138/3/6
f 136/3/6 86/3/6 139/3/6
f 138/1/6 136/1/6 139/1/6
f 139/3/6 86/3/6 140/3/6
