# MagicaVoxel @ Ephtracy

# group
o 

# material
mtllib TT.vox.mtl
usemtl palette

# normals
vn -1 0 0
vn 1 0 0
vn 0 0 1
vn 0 0 -1
vn 0 -1 0
vn 0 1 0

# texcoords
vt 0.982422 0.5
vt 0.990234 0.5

# verts
v -0.5 0 2
v -0.5 0 -1.9
v -0.5 0.1 2
v -0.5 0.1 -1.9
v -0.5 0.2 2
v -0.5 0.2 -1.9
v -0.2 0.1 2
v -0.2 0.1 1.9
v -0.2 0.1 1.8
v -0.2 0.1 1.5
v -0.2 0.1 1.4
v -0.2 0.1 1.1
v -0.2 0.1 1
v -0.2 0.1 0.7
v -0.2 0.1 0.6
v -0.2 0.1 0.3
v -0.2 0.1 0.2
v -0.2 0.1 -0.1
v -0.2 0.1 -0.2
v -0.2 0.1 -0.5
v -0.2 0.1 -0.6
v -0.2 0.1 -0.9
v -0.2 0.1 -1
v -0.2 0.1 -1.3
v -0.2 0.1 -1.4
v -0.2 0.1 -1.7
v -0.2 0.1 -1.8
v -0.2 0.1 -1.9
v -0.2 0.2 2
v -0.2 0.2 1.9
v -0.2 0.2 1.8
v -0.2 0.2 1.5
v -0.2 0.2 1.4
v -0.2 0.2 1.1
v -0.2 0.2 1
v -0.2 0.2 0.7
v -0.2 0.2 0.6
v -0.2 0.2 0.3
v -0.2 0.2 0.2
v -0.2 0.2 -0.1
v -0.2 0.2 -0.2
v -0.2 0.2 -0.5
v -0.2 0.2 -0.6
v -0.2 0.2 -0.9
v -0.2 0.2 -1
v -0.2 0.2 -1.3
v -0.2 0.2 -1.4
v -0.2 0.2 -1.7
v -0.2 0.2 -1.8
v -0.2 0.2 -1.9
v -0.4 0.1 2
v -0.4 0.1 1.9
v -0.4 0.1 1.8
v -0.4 0.1 1.5
v -0.4 0.1 1.4
v -0.4 0.1 1.1
v -0.4 0.1 1
v -0.4 0.1 0.7
v -0.4 0.1 0.6
v -0.4 0.1 0.3
v -0.4 0.1 0.2
v -0.4 0.1 -0.1
v -0.4 0.1 -0.2
v -0.4 0.1 -0.5
v -0.4 0.1 -0.6
v -0.4 0.1 -0.9
v -0.4 0.1 -1
v -0.4 0.1 -1.3
v -0.4 0.1 -1.4
v -0.4 0.1 -1.7
v -0.4 0.1 -1.8
v -0.4 0.1 -1.9
v -0.4 0.2 2
v -0.4 0.2 1.9
v -0.4 0.2 1.8
v -0.4 0.2 1.5
v -0.4 0.2 1.4
v -0.4 0.2 1.1
v -0.4 0.2 1
v -0.4 0.2 0.7
v -0.4 0.2 0.6
v -0.4 0.2 0.3
v -0.4 0.2 0.2
v -0.4 0.2 -0.1
v -0.4 0.2 -0.2
v -0.4 0.2 -0.5
v -0.4 0.2 -0.6
v -0.4 0.2 -0.9
v -0.4 0.2 -1
v -0.4 0.2 -1.3
v -0.4 0.2 -1.4
v -0.4 0.2 -1.7
v -0.4 0.2 -1.8
v -0.4 0.2 -1.9
v -0.1 0 2
v -0.1 0 -1.9
v -0.1 0.1 2
v -0.1 0.1 -1.9
v -0.1 0.2 2
v -0.1 0.2 -1.9
v -0.5 0 2
v -0.5 0.1 2
v -0.5 0.2 2
v -0.4 0.1 2
v -0.4 0.2 2
v -0.2 0.1 2
v -0.2 0.2 2
v -0.1 0 2
v -0.1 0.1 2
v -0.1 0.2 2
v -0.4 0.1 1.9
v -0.4 0.2 1.9
v -0.2 0.1 1.9
v -0.2 0.2 1.9
v -0.4 0.1 1.5
v -0.4 0.2 1.5
v -0.2 0.1 1.5
v -0.2 0.2 1.5
v -0.4 0.1 1.1
v -0.4 0.2 1.1
v -0.2 0.1 1.1
v -0.2 0.2 1.1
v -0.4 0.1 0.7
v -0.4 0.2 0.7
v -0.2 0.1 0.7
v -0.2 0.2 0.7
v -0.4 0.1 0.3
v -0.4 0.2 0.3
v -0.2 0.1 0.3
v -0.2 0.2 0.3
v -0.4 0.1 -0.1
v -0.4 0.2 -0.1
v -0.2 0.1 -0.1
v -0.2 0.2 -0.1
v -0.4 0.1 -0.5
v -0.4 0.2 -0.5
v -0.2 0.1 -0.5
v -0.2 0.2 -0.5
v -0.4 0.1 -0.9
v -0.4 0.2 -0.9
v -0.2 0.1 -0.9
v -0.2 0.2 -0.9
v -0.4 0.1 -1.3
v -0.4 0.2 -1.3
v -0.2 0.1 -1.3
v -0.2 0.2 -1.3
v -0.4 0.1 -1.7
v -0.4 0.2 -1.7
v -0.2 0.1 -1.7
v -0.2 0.2 -1.7
v -0.4 0.1 1.8
v -0.4 0.2 1.8
v -0.2 0.1 1.8
v -0.2 0.2 1.8
v -0.4 0.1 1.4
v -0.4 0.2 1.4
v -0.2 0.1 1.4
v -0.2 0.2 1.4
v -0.4 0.1 1
v -0.4 0.2 1
v -0.2 0.1 1
v -0.2 0.2 1
v -0.4 0.1 0.6
v -0.4 0.2 0.6
v -0.2 0.1 0.6
v -0.2 0.2 0.6
v -0.4 0.1 0.2
v -0.4 0.2 0.2
v -0.2 0.1 0.2
v -0.2 0.2 0.2
v -0.4 0.1 -0.2
v -0.4 0.2 -0.2
v -0.2 0.1 -0.2
v -0.2 0.2 -0.2
v -0.4 0.1 -0.6
v -0.4 0.2 -0.6
v -0.2 0.1 -0.6
v -0.2 0.2 -0.6
v -0.4 0.1 -1
v -0.4 0.2 -1
v -0.2 0.1 -1
v -0.2 0.2 -1
v -0.4 0.1 -1.4
v -0.4 0.2 -1.4
v -0.2 0.1 -1.4
v -0.2 0.2 -1.4
v -0.4 0.1 -1.8
v -0.4 0.2 -1.8
v -0.2 0.1 -1.8
v -0.2 0.2 -1.8
v -0.5 0 -1.9
v -0.5 0.1 -1.9
v -0.5 0.2 -1.9
v -0.4 0.1 -1.9
v -0.4 0.2 -1.9
v -0.2 0.1 -1.9
v -0.2 0.2 -1.9
v -0.1 0 -1.9
v -0.1 0.1 -1.9
v -0.1 0.2 -1.9
v -0.5 0 2
v -0.1 0 2
v -0.5 0 -1.9
v -0.1 0 -1.9
v -0.4 0.1 2
v -0.2 0.1 2
v -0.4 0.1 1.9
v -0.2 0.1 1.9
v -0.4 0.1 1.8
v -0.2 0.1 1.8
v -0.4 0.1 1.5
v -0.2 0.1 1.5
v -0.4 0.1 1.4
v -0.2 0.1 1.4
v -0.4 0.1 1.1
v -0.2 0.1 1.1
v -0.4 0.1 1
v -0.2 0.1 1
v -0.4 0.1 0.7
v -0.2 0.1 0.7
v -0.4 0.1 0.6
v -0.2 0.1 0.6
v -0.4 0.1 0.3
v -0.2 0.1 0.3
v -0.4 0.1 0.2
v -0.2 0.1 0.2
v -0.4 0.1 -0.1
v -0.2 0.1 -0.1
v -0.4 0.1 -0.2
v -0.2 0.1 -0.2
v -0.4 0.1 -0.5
v -0.2 0.1 -0.5
v -0.4 0.1 -0.6
v -0.2 0.1 -0.6
v -0.4 0.1 -0.9
v -0.2 0.1 -0.9
v -0.4 0.1 -1
v -0.2 0.1 -1
v -0.4 0.1 -1.3
v -0.2 0.1 -1.3
v -0.4 0.1 -1.4
v -0.2 0.1 -1.4
v -0.4 0.1 -1.7
v -0.2 0.1 -1.7
v -0.4 0.1 -1.8
v -0.2 0.1 -1.8
v -0.4 0.1 -1.9
v -0.2 0.1 -1.9
v -0.5 0.2 2
v -0.4 0.2 2
v -0.2 0.2 2
v -0.1 0.2 2
v -0.4 0.2 1.9
v -0.2 0.2 1.9
v -0.4 0.2 1.8
v -0.2 0.2 1.8
v -0.4 0.2 1.5
v -0.2 0.2 1.5
v -0.4 0.2 1.4
v -0.2 0.2 1.4
v -0.4 0.2 1.1
v -0.2 0.2 1.1
v -0.4 0.2 1
v -0.2 0.2 1
v -0.4 0.2 0.7
v -0.2 0.2 0.7
v -0.4 0.2 0.6
v -0.2 0.2 0.6
v -0.4 0.2 0.3
v -0.2 0.2 0.3
v -0.4 0.2 0.2
v -0.2 0.2 0.2
v -0.4 0.2 -0.1
v -0.2 0.2 -0.1
v -0.4 0.2 -0.2
v -0.2 0.2 -0.2
v -0.4 0.2 -0.5
v -0.2 0.2 -0.5
v -0.4 0.2 -0.6
v -0.2 0.2 -0.6
v -0.4 0.2 -0.9
v -0.2 0.2 -0.9
v -0.4 0.2 -1
v -0.2 0.2 -1
v -0.4 0.2 -1.3
v -0.2 0.2 -1.3
v -0.4 0.2 -1.4
v -0.2 0.2 -1.4
v -0.4 0.2 -1.7
v -0.2 0.2 -1.7
v -0.4 0.2 -1.8
v -0.2 0.2 -1.8
v -0.5 0.2 -1.9
v -0.4 0.2 -1.9
v -0.2 0.2 -1.9
v -0.1 0.2 -1.9

# faces
f 3/2/1 2/2/1 1/2/1
f 4/2/1 2/2/1 3/2/1
f 5/1/1 4/1/1 3/1/1
f 6/1/1 4/1/1 5/1/1
f 29/1/1 8/1/1 7/1/1
f 30/1/1 8/1/1 29/1/1
f 31/1/1 10/1/1 9/1/1
f 32/1/1 10/1/1 31/1/1
f 33/1/1 12/1/1 11/1/1
f 34/1/1 12/1/1 33/1/1
f 35/1/1 14/1/1 13/1/1
f 36/1/1 14/1/1 35/1/1
f 37/1/1 16/1/1 15/1/1
f 38/1/1 16/1/1 37/1/1
f 39/1/1 18/1/1 17/1/1
f 40/1/1 18/1/1 39/1/1
f 41/1/1 20/1/1 19/1/1
f 42/1/1 20/1/1 41/1/1
f 43/1/1 22/1/1 21/1/1
f 44/1/1 22/1/1 43/1/1
f 45/1/1 24/1/1 23/1/1
f 46/1/1 24/1/1 45/1/1
f 47/1/1 26/1/1 25/1/1
f 48/1/1 26/1/1 47/1/1
f 49/1/1 28/1/1 27/1/1
f 50/1/1 28/1/1 49/1/1
f 51/1/2 52/1/2 73/1/2
f 73/1/2 52/1/2 74/1/2
f 53/1/2 54/1/2 75/1/2
f 75/1/2 54/1/2 76/1/2
f 55/1/2 56/1/2 77/1/2
f 77/1/2 56/1/2 78/1/2
f 57/1/2 58/1/2 79/1/2
f 79/1/2 58/1/2 80/1/2
f 59/1/2 60/1/2 81/1/2
f 81/1/2 60/1/2 82/1/2
f 61/1/2 62/1/2 83/1/2
f 83/1/2 62/1/2 84/1/2
f 63/1/2 64/1/2 85/1/2
f 85/1/2 64/1/2 86/1/2
f 65/1/2 66/1/2 87/1/2
f 87/1/2 66/1/2 88/1/2
f 67/1/2 68/1/2 89/1/2
f 89/1/2 68/1/2 90/1/2
f 69/1/2 70/1/2 91/1/2
f 91/1/2 70/1/2 92/1/2
f 71/1/2 72/1/2 93/1/2
f 93/1/2 72/1/2 94/1/2
f 95/2/2 96/2/2 97/2/2
f 97/2/2 96/2/2 98/2/2
f 97/1/2 98/1/2 99/1/2
f 99/1/2 98/1/2 100/1/2
f 104/2/3 102/2/3 101/2/3
f 104/1/3 103/1/3 102/1/3
f 105/1/3 103/1/3 104/1/3
f 106/2/3 104/2/3 101/2/3
f 108/2/3 106/2/3 101/2/3
f 109/1/3 107/1/3 106/1/3
f 109/2/3 106/2/3 108/2/3
f 110/1/3 107/1/3 109/1/3
f 113/1/3 112/1/3 111/1/3
f 114/1/3 112/1/3 113/1/3
f 117/1/3 116/1/3 115/1/3
f 118/1/3 116/1/3 117/1/3
f 121/1/3 120/1/3 119/1/3
f 122/1/3 120/1/3 121/1/3
f 125/1/3 124/1/3 123/1/3
f 126/1/3 124/1/3 125/1/3
f 129/1/3 128/1/3 127/1/3
f 130/1/3 128/1/3 129/1/3
f 133/1/3 132/1/3 131/1/3
f 134/1/3 132/1/3 133/1/3
f 137/1/3 136/1/3 135/1/3
f 138/1/3 136/1/3 137/1/3
f 141/1/3 140/1/3 139/1/3
f 142/1/3 140/1/3 141/1/3
f 145/1/3 144/1/3 143/1/3
f 146/1/3 144/1/3 145/1/3
f 149/1/3 148/1/3 147/1/3
f 150/1/3 148/1/3 149/1/3
f 151/1/4 152/1/4 153/1/4
f 153/1/4 152/1/4 154/1/4
f 155/1/4 156/1/4 157/1/4
f 157/1/4 156/1/4 158/1/4
f 159/1/4 160/1/4 161/1/4
f 161/1/4 160/1/4 162/1/4
f 163/1/4 164/1/4 165/1/4
f 165/1/4 164/1/4 166/1/4
f 167/1/4 168/1/4 169/1/4
f 169/1/4 168/1/4 170/1/4
f 171/1/4 172/1/4 173/1/4
f 173/1/4 172/1/4 174/1/4
f 175/1/4 176/1/4 177/1/4
f 177/1/4 176/1/4 178/1/4
f 179/1/4 180/1/4 181/1/4
f 181/1/4 180/1/4 182/1/4
f 183/1/4 184/1/4 185/1/4
f 185/1/4 184/1/4 186/1/4
f 187/1/4 188/1/4 189/1/4
f 189/1/4 188/1/4 190/1/4
f 191/2/4 192/2/4 194/2/4
f 192/1/4 193/1/4 194/1/4
f 194/1/4 193/1/4 195/1/4
f 191/2/4 194/2/4 196/2/4
f 191/2/4 196/2/4 198/2/4
f 196/1/4 197/1/4 199/1/4
f 198/2/4 196/2/4 199/2/4
f 199/1/4 197/1/4 200/1/4
f 203/2/5 202/2/5 201/2/5
f 204/2/5 202/2/5 203/2/5
f 205/2/6 206/2/6 207/2/6
f 207/2/6 206/2/6 208/2/6
f 209/2/6 210/2/6 211/2/6
f 211/2/6 210/2/6 212/2/6
f 213/2/6 214/2/6 215/2/6
f 215/2/6 214/2/6 216/2/6
f 217/2/6 218/2/6 219/2/6
f 219/2/6 218/2/6 220/2/6
f 221/2/6 222/2/6 223/2/6
f 223/2/6 222/2/6 224/2/6
f 225/2/6 226/2/6 227/2/6
f 227/2/6 226/2/6 228/2/6
f 229/2/6 230/2/6 231/2/6
f 231/2/6 230/2/6 232/2/6
f 233/2/6 234/2/6 235/2/6
f 235/2/6 234/2/6 236/2/6
f 237/2/6 238/2/6 239/2/6
f 239/2/6 238/2/6 240/2/6
f 241/2/6 242/2/6 243/2/6
f 243/2/6 242/2/6 244/2/6
f 245/2/6 246/2/6 247/2/6
f 247/2/6 246/2/6 248/2/6
f 249/1/6 250/1/6 253/1/6
f 251/1/6 252/1/6 254/1/6
f 249/1/6 253/1/6 255/1/6
f 253/1/6 254/1/6 255/1/6
f 254/1/6 252/1/6 256/1/6
f 255/1/6 254/1/6 256/1/6
f 249/1/6 255/1/6 257/1/6
f 256/1/6 252/1/6 258/1/6
f 249/1/6 257/1/6 259/1/6
f 257/1/6 258/1/6 259/1/6
f 258/1/6 252/1/6 260/1/6
f 259/1/6 258/1/6 260/1/6
f 249/1/6 259/1/6 261/1/6
f 260/1/6 252/1/6 262/1/6
f 249/1/6 261/1/6 263/1/6
f 261/1/6 262/1/6 263/1/6
f 262/1/6 252/1/6 264/1/6
f 263/1/6 262/1/6 264/1/6
f 249/1/6 263/1/6 265/1/6
f 264/1/6 252/1/6 266/1/6
f 249/1/6 265/1/6 267/1/6
f 265/1/6 266/1/6 267/1/6
f 266/1/6 252/1/6 268/1/6
f 267/1/6 266/1/6 268/1/6
f 249/1/6 267/1/6 269/1/6
f 268/1/6 252/1/6 270/1/6
f 249/1/6 269/1/6 271/1/6
f 269/1/6 270/1/6 271/1/6
f 270/1/6 252/1/6 272/1/6
f 271/1/6 270/1/6 272/1/6
f 249/1/6 271/1/6 273/1/6
f 272/1/6 252/1/6 274/1/6
f 249/1/6 273/1/6 275/1/6
f 273/1/6 274/1/6 275/1/6
f 274/1/6 252/1/6 276/1/6
f 275/1/6 274/1/6 276/1/6
f 249/1/6 275/1/6 277/1/6
f 276/1/6 252/1/6 278/1/6
f 249/1/6 277/1/6 279/1/6
f 277/1/6 278/1/6 279/1/6
f 278/1/6 252/1/6 280/1/6
f 279/1/6 278/1/6 280/1/6
f 249/1/6 279/1/6 281/1/6
f 280/1/6 252/1/6 282/1/6
f 249/1/6 281/1/6 283/1/6
f 281/1/6 282/1/6 283/1/6
f 282/1/6 252/1/6 284/1/6
f 283/1/6 282/1/6 284/1/6
f 249/1/6 283/1/6 285/1/6
f 284/1/6 252/1/6 286/1/6
f 249/1/6 285/1/6 287/1/6
f 285/1/6 286/1/6 287/1/6
f 286/1/6 252/1/6 288/1/6
f 287/1/6 286/1/6 288/1/6
f 249/1/6 287/1/6 289/1/6
f 288/1/6 252/1/6 290/1/6
f 249/1/6 289/1/6 291/1/6
f 289/1/6 290/1/6 291/1/6
f 290/1/6 252/1/6 292/1/6
f 291/1/6 290/1/6 292/1/6
f 249/1/6 291/1/6 293/1/6
f 293/1/6 291/1/6 294/1/6
f 292/1/6 252/1/6 295/1/6
f 295/1/6 252/1/6 296/1/6
